<svg width="30" height="27" viewBox="0 0 30 27" fill="none" xmlns="http://www.w3.org/2000/svg">
<path d="M15.8798 21.989C15.7487 21.8714 15.6447 21.7317 15.5737 21.5779C15.5028 21.424 15.4662 21.2591 15.4662 21.0925C15.4662 20.926 15.5028 20.761 15.5737 20.6072C15.6447 20.4533 15.7487 20.3136 15.8798 20.196L21.9138 14.7655L4.68727 14.7655C4.31431 14.7655 3.95662 14.6321 3.6929 14.3948C3.42918 14.1574 3.28102 13.8355 3.28102 13.4998C3.28102 13.1642 3.42918 12.8423 3.6929 12.6049C3.95662 12.3675 4.31431 12.2342 4.68727 12.2342L21.9138 12.2342L15.8798 6.80151C15.6157 6.56375 15.4673 6.24127 15.4673 5.90503C15.4673 5.56878 15.6157 5.24631 15.8798 5.00854C16.144 4.77078 16.5023 4.63721 16.8759 4.63721C17.2495 4.63721 17.6079 4.77078 17.872 5.00854L26.3095 12.6023C26.4406 12.7199 26.5447 12.8596 26.6156 13.0134C26.6866 13.1673 26.7231 13.3322 26.7231 13.4988C26.7231 13.6654 26.6866 13.8303 26.6156 13.9841C26.5447 14.138 26.4406 14.2777 26.3095 14.3953L17.872 21.989C17.7414 22.107 17.5861 22.2006 17.4152 22.2645C17.2443 22.3284 17.061 22.3613 16.8759 22.3613C16.6909 22.3613 16.5076 22.3284 16.3367 22.2645C16.1657 22.2006 16.0105 22.107 15.8798 21.989Z" fill="#1C81A2"/>
</svg>
