<?xml version="1.0" standalone="no"?>
<!DOCTYPE svg PUBLIC "-//W3C//DTD SVG 20010904//EN"
 "http://www.w3.org/TR/2001/REC-SVG-20010904/DTD/svg10.dtd">
<svg version="1.0" xmlns="http://www.w3.org/2000/svg"
 width="601.000000pt" height="601.000000pt" viewBox="0 0 601.000000 601.000000"
 preserveAspectRatio="xMidYMid meet">
<metadata>
Created by potrace 1.14, written by Peter Selinger 2001-2017
</metadata>
<g transform="translate(0.000000,601.000000) scale(0.100000,-0.100000)"
fill="#000000" stroke="none">
<path d="M4105 4664 c-55 -70 -105 -131 -110 -138 -6 -6 -222 -274 -479 -596
-258 -322 -474 -591 -481 -598 -10 -11 -125 -14 -606 -15 l-594 -2 -292 -295
-293 -295 0 -745 0 -745 300 0 c195 0 300 3 301 10 0 5 0 340 1 743 l0 732
436 -2 437 -3 0 -737 c0 -487 3 -738 10 -739 5 -1 139 -2 298 -3 281 -1 287
-1 288 19 0 11 1 346 2 745 l0 725 47 60 c26 33 223 295 438 583 216 287 393
522 395 522 1 0 4 -530 6 -1177 1 -648 4 -1245 4 -1328 l2 -150 290 0 290 0 1
1778 1 1777 -296 0 -296 0 -100 -126z"/>
</g>
</svg>
